<svg version="1.1" xmlns="http://www.w3.org/2000/svg" xmlns:xlink="http://www.w3.org/1999/xlink" x="0px" y="0px"
	 viewBox="5 10 110 80" xml:space="preserve">
<g opacity="0.08">
	<path fill="#404451" d="M35.89,43.49c0.51-0.18,0.95-0.38,1.42-0.5c0.34-0.09,0.71-0.1,1.07-0.09c0.45,0.02,0.6,0.2,0.54,0.65
		c-0.13,0.97-0.29,1.94-0.44,2.91c-0.03,0.18-0.05,0.37-0.07,0.58c0.12,0.01,0.22,0.05,0.3,0.03c0.62-0.13,1.02,0.18,1.34,0.65
		c0.39,0.59,0.78,1.18,1.18,1.76c0.04,0.06,0.09,0.11,0.17,0.22c0.08-0.23,0.16-0.41,0.2-0.6c0.2-1.06,0.41-2.11,0.59-3.17
		c0.07-0.4-0.1-0.73-0.36-1.05c-0.94-1.2-1.67-2.53-2.13-3.98c-0.13-0.39-0.01-0.88,0.06-1.31c0.06-0.36,0.16-0.73,0.31-1.07
		c0.14-0.34,0.05-0.53-0.26-0.67c-0.1-0.04-0.19-0.11-0.33-0.2c-0.06,0.43-0.11,0.81-0.18,1.2c-0.15,0.86-0.29,1.71-0.45,2.56
		c-0.04,0.21-0.09,0.42-0.19,0.6c-0.11,0.19-0.28,0.33-0.43,0.5c-0.11-0.19-0.31-0.37-0.33-0.58c-0.13-1.03-0.18-2.07-0.34-3.1
		c-0.14-0.86-0.37-1.72-0.6-2.56c-0.05-0.18-0.26-0.36-0.43-0.44c-0.25-0.12-0.24-0.24-0.12-0.43c0.37-0.61,1.81-1.14,2.46-0.86
		c0.5,0.22,0.6,0.72,0.71,1.2c0.05,0.23,0.05,0.48,0.08,0.8c0.12-0.15,0.18-0.22,0.23-0.3c0.51-0.89,1.04-1.77,1.53-2.68
		c0.33-0.61,1.24-0.91,1.82-0.53c0.11,0.07,0.18,0.36,0.13,0.5c-0.21,0.56-0.47,1.09-0.72,1.63c-0.2,0.45-0.41,0.89-0.66,1.42
		c0.51-0.08,0.95-0.15,1.38-0.22c0.9-0.15,1-0.12,1.43,0.67c0.63,1.14,1.26,2.28,1.83,3.45c0.27,0.55,0.48,1.14,0.75,1.69
		c0.29,0.62,0.28,1.39,0.34,2.1c0.05,0.55,0,1.11-0.01,1.68c1.28,0.07,2.5-0.06,3.72-0.29c0.57-0.11,1.14-0.24,1.72-0.29
		c0.53-0.04,1.07,0.01,1.69,0.02c-0.46,1-1.01,1.73-1.9,2.17c-0.24,0.12-0.49,0.25-0.75,0.32c-0.57,0.16-1.03,0.49-1.41,0.92
		c-0.39,0.44-0.86,0.55-1.41,0.41c-0.79-0.21-1.58-0.42-2.42-0.64c-0.84,1.37-1.85,2.62-3.34,3.36c-0.03-0.02-0.06-0.05-0.1-0.07
		c0.11-0.21,0.23-0.42,0.34-0.63c0.46-0.88,0.94-1.74,1.38-2.63c0.23-0.48,0.18-0.54-0.32-0.72c-0.32-0.12-0.66-0.21-1.03-0.32
		c-0.18,0.49-0.34,0.94-0.51,1.39c-0.22,0.58-0.36,1.19-0.85,1.63c-0.5,0.44-0.5,0.45-0.23,1.06c0.14,0.32,0.31,0.62,0.47,0.93
		c0.17,0.32,0.12,0.59-0.15,0.83c-0.14,0.12-0.28,0.24-0.43,0.36c-0.3,0.23-0.62,0.25-0.93,0.04c-0.51-0.34-1.04-0.67-1.51-1.07
		c-0.2-0.18-0.28-0.51-0.39-0.78c-0.38-0.98-0.75-1.97-1.12-2.95c-0.04-0.11-0.11-0.21-0.21-0.41c-0.16,0.53-0.31,0.95-0.42,1.39
		c-0.24,1.02-0.81,1.8-1.68,2.36c-0.03,0.02-0.06,0.06-0.09,0.07c-0.2,0.06-0.39,0.11-0.59,0.17c-0.03-0.2-0.1-0.4-0.07-0.59
		c0.32-1.98,0.65-3.96,0.97-5.95c0.08-0.49,0.11-0.98,0.17-1.5c-0.35,0.01-0.53,0.15-0.68,0.44c-0.28,0.57-0.6,1.13-0.93,1.68
		c-0.08,0.14-0.23,0.26-0.37,0.36c-0.3,0.21-0.54,0.13-0.63-0.24c-0.06-0.28-0.08-0.57-0.08-0.85c0.01-1.96,0.05-3.92,0.04-5.87
		c0-0.55-0.11-1.1-0.2-1.65c-0.06-0.37,0.02-0.7,0.37-0.79c0.63-0.17,1.27-0.34,1.92-0.35c0.79-0.01,1.22,0.81,0.98,1.56
		c-0.2,0.63-0.37,1.28-0.49,1.93c-0.14,0.73-0.21,1.47-0.31,2.21C35.91,43.14,35.9,43.3,35.89,43.49z M41.71,37.47
		c-0.03-0.02-0.07-0.05-0.1-0.07c-0.22,0.2-0.46,0.37-0.65,0.6c-0.18,0.21-0.34,0.44-0.44,0.69c-0.1,0.26-0.14,0.56-0.13,0.84
		c0,0.2,0.06,0.48,0.19,0.58c0.23,0.17,0.57,0.3,0.83,0.07c0.39-0.35,0.75-0.75,1.09-1.15c0.14-0.16,0.13-0.37-0.16-0.51
		c-0.26,0.38-0.52,0.77-0.78,1.14c-0.69-0.12-0.82-0.38-0.51-0.97C41.28,38.29,41.5,37.88,41.71,37.47z M42.99,43.62
		c0.41,0.01,0.72-0.04,0.99,0.03c0.31,0.08,0.49,0.03,0.62-0.25c0.04-0.09,0.1-0.17,0.16-0.25c0.22-0.37,0.06-0.82-0.35-0.95
		c-0.06-0.02-0.17-0.02-0.21,0.02C43.8,42.66,43.42,43.12,42.99,43.62z M45.46,44.22c-0.87,0.24-1.11,0.57-1.03,1.4
		c0.35,0.07,0.71,0.14,1.11,0.22C45.51,45.28,45.48,44.77,45.46,44.22z M43.18,40.4c-0.26,0.4-0.53,0.8-0.77,1.21
		c-0.04,0.08,0.02,0.22,0.04,0.33c0.09-0.03,0.21-0.02,0.27-0.08c0.22-0.22,0.43-0.45,0.62-0.69C43.58,40.88,43.52,40.63,43.18,40.4
		z"/>
	<path fill="#404451" d="M31.11,88.1c-0.73-0.03-0.95-0.6-1.24-1.11c-0.91-1.62-1.82-3.25-2.73-4.87c-0.05-0.1-0.11-0.2-0.15-0.3
		c-0.12-0.25-0.03-0.41,0.24-0.46c0.13-0.02,0.28-0.05,0.4-0.02c0.53,0.11,1.07,0.21,1.59,0.38c0.25,0.08,0.46,0.31,0.72,0.49
		c0.16-0.23,0.33-0.48,0.49-0.74c0.03-0.05,0.03-0.15,0-0.21c-0.21-0.48-0.42-0.95-0.67-1.5c-0.16,0.27-0.29,0.47-0.39,0.69
		c-0.19,0.42-0.5,0.59-0.95,0.54c-0.17-0.02-0.35-0.01-0.52-0.03c-0.46-0.05-0.58-0.2-0.42-0.64c0.34-0.91,0.71-1.8,1.07-2.7
		c0.18-0.45,0.34-0.9,0.52-1.35c0.14-0.36,0.39-0.52,0.79-0.41c0.55,0.15,1.11,0.25,1.65,0.43c0.47,0.15,0.68,0.48,0.5,0.89
		c-0.41,0.97-0.13,1.84,0.23,2.72c0.17,0.41,0.3,0.84,0.46,1.26c0.14,0.35,0.37,0.39,0.62,0.11c0.54-0.63,1.08-1.26,1.6-1.91
		c0.07-0.09,0.05-0.26,0.06-0.39c-0.13-0.02-0.27-0.08-0.39-0.05c-0.25,0.06-0.49,0.19-0.74,0.25c-0.81,0.16-1.41-0.52-1.14-1.29
		c0.17-0.49,0.41-0.96,0.57-1.45c0.07-0.2,0.07-0.48-0.02-0.67c-0.34-0.78-0.7-1.56-1.1-2.32c-0.14-0.27-0.4-0.5-0.65-0.7
		c-0.22-0.19-0.32-0.39-0.28-0.68c0.13-1,0.64-1.47,1.66-1.48c0.17,0,0.35,0.02,0.52,0.03c0.64,0.03,1.06,0.34,1.29,0.95
		c0.12,0.33,0.28,0.65,0.45,1.02c0.13-0.09,0.26-0.14,0.35-0.24c0.31-0.34,0.65-0.3,1.04-0.14c1,0.4,1.3,1.07,0.89,2.06
		c-0.2,0.49-0.41,0.99-0.58,1.49c-0.07,0.21-0.16,0.48,0.11,0.63c0.29,0.16,0.5-0.01,0.68-0.22c0.51-0.6,1.04-1.2,1.54-1.81
		c0.47-0.58,1.05-0.85,1.79-0.77c0.42,0.05,0.84,0.06,1.26,0.13c0.63,0.11,0.82,0.62,0.41,1.12c-0.21,0.25-0.48,0.46-0.75,0.65
		c-0.72,0.49-1.45,0.96-2.17,1.44c-0.12,0.08-0.37,0.14-0.22,0.38c0.14,0.23,0.3,0.07,0.45-0.01c0.38-0.2,0.75-0.46,1.16-0.57
		c0.78-0.21,1.22,0.21,1.15,1.02c-0.04,0.58-0.34,1.04-0.78,1.39c-0.33,0.27-0.32,0.48-0.12,0.84c0.77,1.36,1.49,2.74,2.24,4.12
		c0.62,1.14,0.43,2.28-0.03,3.41c-0.14,0.34-1.02,0.78-1.39,0.7c-0.69-0.15-1.37-0.35-2.06-0.5c-0.57-0.12-1.14-0.19-1.72-0.28
		c-0.14-0.02-0.28-0.04-0.44-0.15c0.42-0.24,0.84-0.49,1.27-0.73c0.31-0.18,0.64-0.32,0.95-0.51c0.09-0.06,0.18-0.24,0.16-0.34
		c-0.26-1.32-0.72-2.57-1.41-3.74c-0.13-0.22-0.27-0.27-0.47-0.08c-0.27,0.27-0.55,0.53-0.87,0.83c0.36,0.15,0.68,0.26,0.98,0.4
		c0.72,0.33,1.09,0.98,1.03,1.77c-0.04,0.47-0.19,0.58-0.65,0.5c-0.8-0.15-1.47-0.57-2.16-0.97c-0.25-0.14-0.57-0.17-0.86-0.23
		c-0.29-0.06-0.6-0.05-0.87-0.15c-0.54-0.2-0.65-0.56-0.29-1.01c0.66-0.82,1.35-1.61,2.03-2.42c0.1-0.11,0.2-0.22,0.29-0.34
		c0.44-0.51,0.44-0.51-0.03-1.12c-0.24,0.23-0.48,0.45-0.72,0.67c-0.88,0.83-1.78,1.64-2.3,2.79c-0.13,0.29-0.14,0.5,0.01,0.75
		c0.35,0.57,0.7,1.14,1.05,1.71c0.31,0.51,0.63,1.01,0.9,1.54c0.48,0.94-0.08,1.56-0.93,1.76c-0.31,0.07-0.57-0.14-0.73-0.41
		c-0.26-0.45-0.52-0.9-0.84-1.46c-0.11,0.24-0.2,0.35-0.22,0.48c-0.14,0.8-0.26,1.61-0.38,2.42c-0.02,0.12-0.01,0.25-0.03,0.37
		c-0.08,0.81-0.52,1.08-1.28,0.77c-0.79-0.32-0.98-0.69-0.76-1.51C30.9,88.75,31,88.47,31.11,88.1z M31.47,83.46
		c-0.22,0.29-0.57,0.53-0.44,0.89c0.14,0.41,0.42,0.76,0.65,1.16C32.16,84.63,32.12,84.24,31.47,83.46z"/>
	<path fill="#404451" d="M77.94,16.99c0.39-0.32,0.76-0.63,1.14-0.95c-0.49-0.92-0.9-1.88-2.04-2.18c-0.32-0.09-0.41-0.33-0.31-0.65
		c0.16-0.51,0.41-0.93,1.03-0.97c0.48-0.03,0.96-0.1,1.44-0.14c0.55-0.05,0.92,0.2,1.19,0.66c0.26,0.43,0.54,0.85,0.8,1.28
		c0.54-0.3,0.58-0.43,0.36-0.93c-0.35-0.78-0.69-1.56-1.03-2.35c-0.08-0.19-0.14-0.4-0.18-0.6c-0.12-0.55,0.08-0.84,0.63-0.82
		c0.55,0.02,1.11,0.11,1.66,0.18c0.4,0.05,0.52,0.39,0.64,0.7c0.17,0.45,0.32,0.91,0.49,1.37c0.42-0.01,0.81-0.04,1.21-0.04
		c0.23,0,0.47,0.04,0.7,0.09c0.55,0.13,0.73,0.43,0.44,0.92c-0.24,0.4-0.6,0.74-0.94,1.07c-0.22,0.22-0.54,0.34-0.62,0.76
		c0.26-0.08,0.48-0.19,0.7-0.2c0.46-0.03,0.92-0.03,1.37,0c0.38,0.02,0.55,0.25,0.51,0.63c-0.06,0.57-0.42,0.93-0.84,1.26
		c-0.21,0.16-0.43,0.32-0.74,0.55c0.23,0.03,0.35,0.05,0.48,0.06c1.51,0.1,2.99-0.07,4.46-0.44c0.69-0.18,1.39-0.24,2.08,0.03
		c0.52,0.21,0.57,0.45,0.13,0.81c-0.57,0.48-1.14,0.95-1.71,1.41c-0.34,0.28-0.68,0.56-1.05,0.81c-0.35,0.24-0.75,0.25-1.15,0.14
		c-0.42-0.12-0.82-0.27-1.22-0.4c-0.14,0.8-0.26,1.49-0.4,2.23c0.14,0.01,0.35,0.02,0.56,0.02c0.48,0.01,0.54,0.07,0.62,0.55
		c0.09,0.51-0.04,0.93-0.42,1.27c-0.27,0.24-0.53,0.49-0.79,0.73c-0.19,0.18-0.28,0.38-0.1,0.62c0.18,0.24,0.37,0.1,0.51-0.02
		c0.25-0.21,0.51-0.43,0.7-0.69c0.19-0.27,0.38-0.48,0.71-0.54c0.81-0.15,1.62-0.34,2.44-0.45c0.36-0.05,0.75,0.03,0.97,0.41
		c0.24,0.41,0.18,0.9-0.24,1.28c-0.58,0.52-1.2,1-1.8,1.49c-0.14,0.12-0.3,0.22-0.44,0.34c-1.08,0.93-2.35,0.81-3.61,0.64
		c-0.64-0.09-1.07-0.6-1.47-1.07c-0.59-0.7-0.98-1.52-1.24-2.39c-0.13-0.43-0.03-0.59,0.42-0.66c0.28-0.04,0.57-0.05,0.85-0.07
		c0.56-0.04,0.62-0.12,0.4-0.75c-0.8,0.84-1.51,0.26-2.25-0.22c-0.25,0.58-0.44,1.12-0.7,1.62c-0.18,0.35-0.43,0.68-0.68,0.99
		c-0.25,0.32-0.46,0.6-0.28,1.06c0.41,1.06,0.76,2.15,1.14,3.22c0.06,0.16,0.11,0.33,0.13,0.5c0.05,0.45-0.21,0.74-0.67,0.74
		c-0.12,0-0.25-0.02-0.37-0.05c-1.04-0.33-1.93-0.85-2.75-1.62c-1.32-1.25-2.33-2.73-3.45-4.12c-0.28-0.34-0.61-0.65-0.91-0.98
		c-0.26-0.3-0.3-0.63-0.15-1c0.26-0.69,0.38-1.39,0.36-2.14c-0.04-1.31-0.56-2.3-1.65-3.02c-0.15-0.1-0.45-0.14-0.35-0.44
		c0.1-0.31,0.17-0.65,0.59-0.73c1.04-0.19,2.08-0.38,3.12-0.01C76.99,16.03,77.62,16.28,77.94,16.99z M80.15,17.58
		c-0.02,0.05-0.06,0.13-0.09,0.21c-0.2,0.63-0.72,0.88-1.33,0.61c-0.25-0.11-0.45-0.31-0.7-0.42c-0.23-0.1-0.53-0.24-0.72-0.16
		c-0.43,0.18-0.9,0.42-1.2,0.76c-0.51,0.6-0.7,1.36-0.67,2.15c0.03,0.81,0.39,1.39,1.17,1.68c0.22,0.08,0.43,0.2,0.65,0.27
		c0.5,0.18,0.7,0.53,0.63,1.04c-0.17,1.38,0.59,2.32,1.48,3.2c0.13,0.13,0.31,0.2,0.54,0.34c0.02-2,0.04-3.91,0.18-5.81
		c0.07-0.01,0.13-0.02,0.2-0.03c0.17,0.58,0.34,1.15,0.5,1.7c0.28-0.95,0.56-1.9,0.82-2.8c-0.47-0.07-0.9-0.11-1.32-0.21
		c-0.49-0.12-0.53-0.35-0.21-0.74c0.35-0.43,0.7-0.86,1.05-1.29C80.82,17.92,80.5,17.76,80.15,17.58z M83.28,20.62
		c0.02,0.01,0.04,0.03,0.05,0.04c0.31-0.44,0.62-0.87,0.93-1.31c0.25-0.35,0.45-0.76,1.04-0.6c-0.01-0.04-0.03-0.08-0.04-0.12
		c-0.56-0.09-1.13-0.18-1.7-0.28C83.47,19.16,83.38,19.89,83.28,20.62z M82.37,14.86c-0.62,0.27-0.63,0.31-0.36,0.86
		c0.08,0.17,0.16,0.34,0.25,0.5c0.07,0.11,0.16,0.21,0.25,0.32c0.04-0.02,0.08-0.03,0.12-0.05C82.54,15.94,82.46,15.41,82.37,14.86z
		"/>
	<path fill="#404451" d="M61.53,34.57c-0.34-0.31-0.38-0.62-0.25-0.99c0.04-0.12-0.02-0.29-0.07-0.43c-0.04-0.12-0.1-0.23-0.18-0.32
		c-0.58-0.71-1.17-1.42-1.8-2.17c-0.31,0.28-0.67,0.61-1.11,1c0.42,0.06,0.74,0.09,1.05,0.15c0.77,0.14,0.91,0.29,0.99,1.06
		c0.19,1.8-0.24,3.44-1.29,4.92c-0.56,0.79-1.44,0.85-2.27,1c-0.22,0.04-0.27-0.15-0.21-0.33c0.08-0.22,0.17-0.44,0.28-0.65
		c0.64-1.3,1.09-2.64,1.01-4.11c-0.02-0.37-0.1-0.75-0.16-1.12c-0.04,0-0.07-0.01-0.11-0.01c-0.06,0.07-0.12,0.13-0.17,0.21
		c-0.15,0.21-0.29,0.43-0.44,0.65c-0.81,1.15-1.5,1.22-2.52,0.26c-0.71-0.67-0.71-0.74-0.04-1.45c1.16-1.22,2.34-2.42,3.51-3.64
		c0.38-0.4,0.38-0.5,0.07-0.93c-0.96,0.41-1.91,0.82-2.85,1.23c-0.03-0.04-0.07-0.07-0.1-0.11c0.05-0.15,0.08-0.32,0.16-0.46
		c0.55-0.94,1.1-1.88,1.65-2.82c0.7-1.2,1.56-2.33,1.89-3.8c0.66,0.14,1.3,0.23,1.9,0.43c0.98,0.33,1.16,1.31,0.4,2.01
		c-0.37,0.34-0.74,0.68-1.11,1.03c0.52,0.49,0.74,0.52,1.19,0.1c0.55-0.51,1.09-1.04,1.64-1.56c0.06-0.06,0.12-0.15,0.19-0.16
		c0.75-0.1,1.49-0.23,2.24-0.25c0.38-0.01,0.71,0.28,0.81,0.67c0.11,0.42,0.09,0.87-0.29,1.16c-0.43,0.32-0.92,0.54-1.34,0.86
		c-0.78,0.59-1.54,1.21-2.29,1.83c-0.06,0.05-0.1,0.2-0.07,0.28c0.04,0.16,0.13,0.31,0.19,0.44c0.61-0.35,1.18-0.71,1.78-1.02
		c1.23-0.65,2.46-1.29,3.7-1.9c0.23-0.11,0.57-0.07,0.83,0c0.56,0.15,1.11,0.35,1.66,0.55c0.29,0.11,0.44,0.35,0.48,0.66
		c0.11,0.87-0.38,1.65-1.23,1.85c-1.53,0.35-3.07,0.69-4.62,0.98c-0.49,0.09-1.01-0.01-1.51-0.03c-0.16-0.01-0.31-0.03-0.54-0.04
		c0.19,0.54,0.36,1.03,0.56,1.59c0.53-0.57,1.23-0.51,1.86-0.67c0.79-0.2,1.32,0.11,1.73,0.75c0.71,1.12,1.41,2.25,2.11,3.38
		c0.16,0.25,0.28,0.53,0.46,0.76c0.65,0.79,0.7,1.75,0.8,2.69c0.02,0.19-0.05,0.45-0.18,0.59c-0.73,0.8-1.92,1.36-2.82,0.1
		c-0.15-0.21-0.31-0.23-0.49-0.08c-0.66,0.54-1.32,1.08-1.98,1.63c-0.1,0.08-0.19,0.16-0.29,0.23c-0.38,0.27-0.62,0.27-0.89-0.1
		c-0.55-0.76-1.1-1.53-1.56-2.35c-0.5-0.91-0.91-1.87-1.35-2.81c-0.04-0.09-0.06-0.19-0.08-0.28c-0.07-0.35,0.01-0.46,0.37-0.46
		C61.04,34.54,61.25,34.56,61.53,34.57z M64,32.95c-0.45,0.25-0.77,0.53-0.89,1.03c-0.09,0.39-0.39,0.61-0.81,0.66
		c-0.08,0.01-0.16,0.04-0.23,0.06c0.25,0.17,0.49,0.34,0.74,0.49c0.07,0.04,0.2,0.07,0.25,0.03c0.54-0.36,1.07-0.74,1.61-1.11
		C64.44,33.71,64.22,33.34,64,32.95z M66.08,36.77c-0.11-0.22-0.2-0.39-0.29-0.57c-0.1-0.21-0.22-0.24-0.4-0.08
		c-0.29,0.26-0.58,0.5-0.87,0.76c-0.49,0.45-0.49,0.46-0.14,1.1C64.94,37.58,65.49,37.19,66.08,36.77z"/>
	<path fill="#404451" d="M19.16,60.84c-0.58,0.25-1.13,0.5-1.69,0.73c-0.2,0.08-0.42,0.14-0.64,0.19c-0.73,0.17-1.21-0.06-1.59-0.7
		c-0.15-0.26-0.1-0.44,0.13-0.6c0.35-0.24,0.75-0.42,1.04-0.72c0.67-0.7,1.32-1.42,1.88-2.2c0.27-0.37,0.33-0.9,0.47-1.36
		c0.02-0.07,0.02-0.16-0.01-0.22c-0.33-0.7-0.66-1.41-0.99-2.12c-0.37,0.31-0.52,0.73-0.36,1.11c0.15,0.36,0.37,0.7,0.57,1.04
		c0.09,0.16,0.26,0.31,0.27,0.48c0.02,0.24,0.02,0.6-0.12,0.7c-0.69,0.53-1.44,0.77-2.17,0.17c-0.42-0.34-0.82-0.73-1.16-1.14
		c-0.6-0.72-0.51-1.59-0.42-2.45c0.01-0.07,0.16-0.12,0.26-0.17c0.02-0.01,0.05,0,0.07,0.02c0.58,0.43,1.03,0.09,1.48-0.25
		c1.05-0.79,1.05-0.38,0.4-1.63c-0.55-1.05-1.15-2.08-1.71-3.13c-0.42-0.79-0.17-1.36,0.71-1.55c1.06-0.23,2.07-0.06,3.03,0.42
		c0.65,0.32,0.82,0.92,0.75,1.57c-0.08,0.76,0.34,1.28,0.72,1.86c0.22-0.97,0.7-1.88,0.41-2.92c-0.16-0.59-0.01-0.77,0.61-0.79
		c0.72-0.03,1.39,0.09,1.93,0.61c0.31,0.29,0.42,0.62,0.24,1.04c-0.5,1.16-0.98,2.33-1.48,3.5c-0.11,0.25-0.22,0.5-0.31,0.76
		c-0.04,0.13-0.03,0.28-0.04,0.42c0.03,0.02,0.06,0.03,0.1,0.05c0.1-0.11,0.22-0.2,0.31-0.32c0.23-0.3,0.44-0.6,0.66-0.9
		c0.34-0.46,0.79-0.64,1.34-0.51c0.35,0.08,0.69,0.21,1.01,0.37c0.35,0.18,0.41,0.4,0.21,0.74c-0.37,0.6-0.77,1.18-1.17,1.76
		c-0.39,0.56-0.79,1.1-1.2,1.67c0.07,0.06,0.11,0.13,0.17,0.15c0.49,0.21,0.72,0.63,0.88,1.1c0.19,0.55,0.34,1.11,0.54,1.66
		c0.09,0.25,0.23,0.5,0.39,0.71c0.3,0.39,0.6,0.45,1.02,0.19c0.84-0.52,1.69-1.04,2.51-1.6c0.82-0.56,1.05-1.36,0.84-2.32
		c-0.3-1.37-0.83-2.65-1.47-3.88c-0.18-0.35-0.34-0.71-0.5-1.06c0.03-0.03,0.07-0.07,0.1-0.1c0.14,0.1,0.31,0.19,0.43,0.32
		c1.03,1.02,2.05,2.05,3.06,3.09c0.51,0.52,1,1.07,1.48,1.62c0.5,0.57,0.73,1.26,0.74,2.02c0,0.2-0.09,0.46-0.24,0.58
		c-0.6,0.52-1.2,1.05-1.87,1.47c-1.12,0.7-2.27,1.39-3.47,1.93c-0.66,0.3-1.47,0.36-2.21,0.38c-1.25,0.03-1.98-0.77-2.5-1.8
		c-0.21-0.42-0.41-0.85-0.65-1.35c-0.07,0.18-0.13,0.3-0.17,0.42c-0.53,1.6-1.06,3.2-1.58,4.81c-0.26,0.8-0.59,1.55-1.31,2.06
		c-0.1,0.07-0.2,0.17-0.31,0.2c-0.18,0.05-0.41,0.14-0.54,0.07c-0.11-0.05-0.17-0.33-0.15-0.49c0.16-0.88,0.35-1.75,0.56-2.62
		c0.23-0.95,0.48-1.9,0.72-2.85C19.14,61.01,19.15,60.94,19.16,60.84z"/>
	<path fill="#404451" d="M52.21,72.71c-0.07,0.34-0.17,0.69-0.19,1.04c-0.06,1.11-0.82,1.71-1.63,2.25
		c-0.56,0.37-1.27-0.04-1.26-0.71c0.03-1.95,0.09-3.89,0.14-5.84c0.03-1.24,0.07-2.48,0.11-3.72c0.01-0.21-0.03-0.35-0.23-0.45
		c-0.26-0.12-0.27-0.32-0.13-0.55c0.38-0.66,0.68-0.8,1.41-0.6c0.49,0.14,0.98,0.27,1.45,0.46c0.58,0.22,0.75,0.53,0.74,1.15
		c-0.03,1.7-0.07,3.39-0.1,5.09c0,0.21,0.01,0.41,0.02,0.66c0.44-0.05,0.85-0.09,1.25-0.15c0.09-0.01,0.21-0.1,0.25-0.18
		c0.47-0.98,0.91-1.98,1.39-2.96c0.18-0.37,0.1-0.63-0.17-0.92c-1.02-1.13-2.07-2.24-2.99-3.45c-0.68-0.9-1.19-1.94-1.75-2.93
		c-0.23-0.4,0.01-0.86,0.46-0.88c0.78-0.02,1.56-0.01,2.33,0.05c0.47,0.04,0.7,0.27,0.66,0.69c-0.05,0.68,0.24,1.2,0.62,1.7
		c0.66,0.87,1.33,1.72,2.03,2.63c0.14-0.19,0.23-0.32,0.33-0.43c0.31-0.35,0.6-0.73,0.95-1.04c0.3-0.26,0.46-0.55,0.42-0.94
		c-0.02-0.28-0.06-0.57-0.11-0.85c-0.05-0.3-0.12-0.59-0.53-0.6c-0.06,0-0.18-0.24-0.15-0.32c0.21-0.57,0.52-1.05,1.21-1.1
		c0.31-0.02,0.62-0.05,0.93-0.05c0.41-0.01,0.68,0.21,0.81,0.59c0.14,0.42,0.16,0.84-0.2,1.17c-0.14,0.13-0.31,0.25-0.48,0.34
		c-0.46,0.24-0.73,0.61-0.88,1.16c0.44,0.02,0.66,0.3,0.88,0.65c0.44,0.69,0.42,1.34,0.08,2.04c-0.19,0.4-0.34,0.82-0.51,1.24
		c-0.19,0.45-0.17,0.55,0.24,0.88c1.26,1.01,2.6,1.91,4.15,2.43c0.37,0.13,0.74,0.27,1.18,0.43c0.14-1.55-0.1-3.03-0.14-4.54
		c0.07,0.12,0.16,0.23,0.22,0.35c0.94,1.87,1.87,3.75,2.81,5.62c0.05,0.11,0.09,0.23,0.12,0.35c0.16,0.62-0.12,1.1-0.76,1.13
		c-0.66,0.04-1.34-0.01-2-0.08c-1.95-0.23-3.62-1.14-5.19-2.26c-0.54-0.39-1.09-0.77-1.64-1.16c-0.24-0.17-0.48-0.18-0.77-0.11
		c-0.59,0.14-1.19,0.2-1.79,0.31c-0.32,0.06-0.75,0.03-0.81,0.45c-0.07,0.44-0.17,0.89,0.29,1.28c0.44,0.37,0.8,0.84,1.11,1.32
		c0.64,0.98,1.22,1.99,1.82,2.98c0.28,0.46-0.05,0.83-0.18,1.22c-0.11,0.31-0.45,0.27-0.68,0.21c-0.91-0.21-1.83-0.44-2.73-0.7
		c-0.26-0.08-0.48-0.29-0.71-0.46c-0.29-0.21-0.38-0.48-0.25-0.85c0.06-0.16,0.08-0.39,0.01-0.53
		C53.19,74.39,52.71,73.58,52.21,72.71z"/>
	<path fill="#404451" d="M102.22,41.38c0.25,0.52,0.51,0.98,0.69,1.46c0.32,0.84,0.64,1.69,0.85,2.56c0.1,0.4,0.02,0.89-0.11,1.3
		c-0.18,0.56-0.67,0.8-1.25,0.66c-0.48-0.11-0.94-0.3-1.46-0.47c0.04,0.11,0.06,0.19,0.1,0.27c0.47,0.97,1.01,1.91,1.4,2.91
		c0.34,0.87,0.51,1.8,0.73,2.72c0.04,0.19-0.03,0.42-0.1,0.61c-0.14,0.33-0.43,0.43-0.73,0.24c-0.2-0.13-0.4-0.31-0.52-0.51
		c-0.75-1.2-1.48-2.41-2.22-3.61c-0.12-0.2-0.25-0.39-0.43-0.66c-0.03,0.22-0.03,0.37-0.06,0.51c-0.2,0.91-0.77,1.58-1.54,2.05
		c-0.24,0.14-0.65,0.14-0.92,0.05c-1.28-0.43-2.33-1.24-3.26-2.21c-0.3-0.31-0.28-0.7-0.19-1.09c0.21-0.83,0.44-1.65,0.66-2.48
		c0.05-0.19,0.12-0.38,0.13-0.58C94,45,93.9,44.9,93.85,44.79c-0.09,0.06-0.22,0.11-0.25,0.2c-0.19,0.58-0.35,1.16-0.53,1.74
		c-0.14,0.49-0.29,0.98-0.44,1.46c-0.26,0.85-0.8,1.44-1.67,1.69c-0.44,0.13-0.87,0.28-1.32,0.39c-0.33,0.08-0.42-0.05-0.3-0.36
		c0.02-0.06,0.05-0.11,0.08-0.17c1.37-2.31,2-4.85,2.32-7.47c0.16-1.27,0.21-2.54,0.3-3.82c0.03-0.46,0-0.9-0.21-1.34
		c-0.2-0.41-0.1-0.58,0.36-0.67c0.64-0.14,1.27-0.04,1.85,0.21c0.17,0.07,0.26,0.33,0.39,0.5c0.08,0.1,0.16,0.28,0.25,0.29
		c2.25,0.29,4.5,0.58,6.75,0.84c0.59,0.07,1.19-0.01,1.78,0.03c0.67,0.04,1.33,0.09,1.99,0.21c0.49,0.09,0.62,0.49,0.35,0.91
		c-0.41,0.64-0.96,1.08-1.7,1.31C103.32,40.9,102.79,41.15,102.22,41.38z M94.13,42.73c0.04,0.01,0.07,0.02,0.11,0.03
		c0.36-0.5,0.7-1.02,1.1-1.49c0.23-0.28,0.52-0.56,0.84-0.68c0.48-0.18,1.01-0.23,1.52-0.33c0.32-0.06,0.5,0.1,0.63,0.39
		c0.29,0.65,0.25,1.25-0.2,1.81c-0.22,0.28-0.43,0.58-0.65,0.87c0.06,0.04,0.07,0.05,0.09,0.05c0.93,0.19,0.97,0.19,1.35-0.65
		c0.27-0.6,0.56-1.16,1.19-1.46c0.05-0.02,0.07-0.09,0.14-0.18c-1.9-0.82-3.74-1.68-5.8-2.2C94.34,40.23,94.23,41.48,94.13,42.73z
		 M96.78,44.16c-0.04,0.02-0.1,0.04-0.14,0.08c-0.43,0.46-0.9,0.85-1.59,0.84c-0.07,0-0.19,0.15-0.21,0.24
		c-0.15,0.98-0.3,1.96-0.42,2.94c-0.02,0.16,0.05,0.39,0.17,0.5c0.45,0.39,1,0.54,1.64,0.63c-0.05-0.37-0.09-0.68-0.15-1.06
		c-0.15,0.15-0.23,0.24-0.32,0.32c-0.22,0.2-0.74,0.16-1.08-0.07c-0.28-0.19-0.13-0.43-0.05-0.63c0.21-0.53,0.5-1.03,0.66-1.58
		c0.19-0.63,0.58-0.96,1.18-1.16c0.78-0.25,0.8-0.35,0.35-1.06C96.83,44.17,96.81,44.17,96.78,44.16z M100.33,43.52
		c-0.21,0.34-0.37,0.59-0.52,0.85c-0.04,0.07-0.09,0.18-0.07,0.23c0.2,0.41,0.37,0.84,0.63,1.21c0.21,0.3,0.52,0.11,0.77-0.01
		c0.26-0.13,0.15-0.33,0.07-0.51C100.94,44.72,100.65,44.16,100.33,43.52z M98.86,48.27c-0.26-0.46-0.51-0.89-0.77-1.33
		c-0.07,0.25-0.06,0.48-0.03,0.71C98.14,48.17,98.26,48.26,98.86,48.27z"/>
	<path fill="#404451" d="M76.45,59.92c-0.11,0.08-0.23,0.15-0.34,0.24c-0.68,0.62-1.44,0.86-2.31,0.43
		c-0.52-0.26-1.05-0.5-1.57-0.77c-0.15-0.08-0.31-0.18-0.41-0.31c-0.12-0.17-0.29-0.41-0.25-0.57c0.04-0.15,0.3-0.31,0.49-0.36
		c0.84-0.25,1.61-0.06,2.32,0.44c0.48,0.33,0.5,0.32,0.88-0.12c0.46-0.51,0.46-0.55-0.01-1.19c-0.07,0.07-0.15,0.13-0.22,0.2
		c-0.62,0.54-0.85,0.56-1.6,0.19c-0.24-0.12-0.29-0.26-0.13-0.46c0.23-0.29,0.48-0.56,0.73-0.84c0.09-0.1,0.2-0.19,0.26-0.31
		c0.05-0.11,0.1-0.3,0.04-0.36c-0.07-0.08-0.27-0.14-0.38-0.1c-0.47,0.13-0.93,0.17-1.37-0.08c-0.12-0.07-0.26-0.26-0.25-0.39
		c0.02-0.32-0.06-0.54-0.35-0.69c-0.18-0.1-0.31-0.27-0.5-0.44c-0.22,0.3-0.41,0.58-0.62,0.85c-0.66,0.86-1.93,0.77-2.49-0.17
		c-0.21-0.35-0.18-0.6,0.15-0.84c0.51-0.37,1.05-0.71,1.57-1.07c0.4-0.27,0.41-0.34,0.08-0.68c-0.34-0.35-0.69-0.68-1.03-1.02
		c-0.37-0.38-0.35-0.69,0.05-1.04c0.46-0.4,1.02-0.41,1.58-0.39c0.53,0.01,1,0.1,1.21,0.7c0.08,0.21,0.25,0.39,0.43,0.65
		c0.47-0.4,0.92-0.78,1.35-1.18c0.1-0.09,0.13-0.3,0.11-0.45c-0.05-0.53-0.08-1.07-0.2-1.58c-0.08-0.33-0.3-0.64-0.49-0.94
		c-0.25-0.4-0.23-0.51,0.17-0.77c0.42-0.26,0.86-0.38,1.35-0.29c0.54,0.1,0.74,0.33,0.78,0.87c0.03,0.36,0.07,0.71,0.12,1.07
		c0.01,0.12,0.06,0.23,0.11,0.4c0.36-0.26,0.66-0.48,0.97-0.7c0.68-0.49,1.43-0.42,2.17-0.22c0.11,0.03,0.24,0.23,0.23,0.35
		c-0.03,0.63-0.11,1.21-0.8,1.54c-0.68,0.32-1.33,0.72-1.99,1.09c-0.23,0.13-0.3,0.86-0.09,1.01c0.09,0.06,0.24,0.04,0.35,0.03
		c0.32-0.04,0.68-0.13,0.89,0.18c0.23,0.34,0.08,0.7-0.14,0.97c-0.36,0.44-0.79,0.82-1.19,1.22c-0.12,0.12-0.23,0.24-0.35,0.36
		c0.02,0.04,0.04,0.07,0.07,0.11c0.15-0.07,0.34-0.11,0.45-0.23c0.69-0.75,1.61-1.18,2.43-1.75c0.58-0.41,1.11-0.32,1.68-0.16
		c0.54,0.16,0.72,0.52,0.5,1.03c-0.18,0.42-0.44,0.8-0.67,1.2c-0.09,0.16-0.2,0.31-0.32,0.51c0.17,0.08,0.32,0.15,0.47,0.23
		c0.5,0.25,0.6,0.8,0.17,1.14c-0.47,0.38-0.99,0.69-1.5,1.03c-0.12,0.08-0.25,0.15-0.4,0.23c0.07,0.18,0.13,0.32,0.2,0.51
		c0.43-0.3,0.83-0.56,1.22-0.84c0.92-0.66,1.83-1.31,2.75-1.98c0.93-0.68,2.58-0.59,3.43,0.19c0.4,0.37,0.45,0.95,0.03,1.31
		c-0.24,0.21-0.57,0.41-0.87,0.44c-1.05,0.1-1.99,0.49-2.92,0.94c-0.79,0.38-1.58,0.77-2.37,1.16c-0.12,0.06-0.23,0.13-0.36,0.21
		c0.45,0.89,0.91,1.74,1.33,2.61c0.48,1.01,0.76,2.07,0.66,3.2c-0.08,0.87-0.23,0.93-0.96,0.47c-0.71-0.45-1.09-1.18-1.54-1.83
		c-0.62-0.89-1.21-1.81-1.84-2.77c-0.49,0.42-0.97,0.79-1.39,1.21c-0.58,0.57-1.12,1.18-1.68,1.78c-0.16,0.17-0.3,0.36-0.47,0.52
		c-0.64,0.6-1.7,0.55-2.27-0.09c-0.22-0.25-0.22-0.46,0.03-0.66c0.64-0.51,1.28-1.01,1.92-1.53c0.91-0.74,1.82-1.49,2.72-2.25
		c0.1-0.08,0.17-0.2,0.26-0.31C76.51,59.98,76.48,59.95,76.45,59.92z M73.7,53.88c0.51-0.59,0.6-1.34,0.26-2.01
		c-0.21,0.2-0.43,0.38-0.61,0.59c-0.07,0.08-0.14,0.23-0.11,0.32C73.37,53.13,73.53,53.47,73.7,53.88z M77.63,56.18
		c0.41-0.27,0.79-1.52,0.68-2.11c-0.32,0.33-0.63,0.63-0.92,0.95c-0.07,0.08-0.1,0.24-0.08,0.33C77.4,55.62,77.52,55.88,77.63,56.18
		z"/>
	<path fill="#404451" d="M97.37,28.18c-0.29-0.71-0.58-1.42-0.87-2.12c-0.26-0.63-0.24-0.7,0.45-0.99c0.61,0.79,1.23,1.58,1.85,2.38
		c0.03-0.02,0.06-0.03,0.09-0.05c-0.25-0.63-0.49-1.26-0.74-1.89c-0.07-0.18-0.15-0.37-0.22-0.55c-0.09-0.25-0.12-0.45,0.21-0.6
		c0.36-0.16,0.39,0.12,0.46,0.3c0.58,1.42,1.14,2.85,1.7,4.29c0.03,0.09-0.02,0.27-0.1,0.33c-0.16,0.13-0.35,0.22-0.56,0.34
		c-0.63-0.81-1.26-1.62-1.89-2.43c-0.02,0.01-0.04,0.02-0.06,0.03c0.29,0.69,0.57,1.39,0.86,2.08c0.04,0.1,0.09,0.2,0.13,0.31
		c0.19,0.49,0.18,0.48-0.27,0.74c-0.24,0.14-0.39,0.11-0.56-0.12c-0.89-1.16-1.79-2.31-2.69-3.47c-0.38-0.49-0.36-0.53,0.28-0.78
		c0.6,0.75,1.22,1.51,1.83,2.27C97.3,28.22,97.33,28.2,97.37,28.18z"/>
	<path fill="#404451" d="M41.44,60.62c-0.5-0.87-1.01-1.75-1.53-2.64c0.24-0.14,0.42-0.24,0.63-0.37c0.88,1.52,1.75,3.03,2.65,4.59
		c-0.18,0.1-0.34,0.23-0.54,0.3c-0.1,0.03-0.25-0.02-0.34-0.09c-0.72-0.54-1.43-1.1-2.15-1.66c-0.1-0.07-0.19-0.14-0.36-0.17
		c0.17,0.33,0.33,0.66,0.5,0.99c0.24,0.43,0.49,0.86,0.74,1.29c0.24,0.42,0.25,0.43-0.17,0.67c-0.06,0.04-0.13,0.06-0.21,0.11
		c-0.88-1.52-1.75-3.03-2.65-4.59c0.21-0.12,0.4-0.26,0.61-0.34c0.08-0.03,0.23,0.03,0.32,0.1c0.74,0.56,1.47,1.14,2.2,1.71
		c0.07,0.06,0.15,0.11,0.23,0.16C41.4,60.65,41.42,60.64,41.44,60.62z"/>
	<path fill="#404451" d="M55.08,52.77c-0.51-0.88-1.01-1.75-1.53-2.65c0.22-0.13,0.41-0.24,0.61-0.35c0.88,1.52,1.75,3.03,2.62,4.54
		c-0.54,0.46-0.61,0.47-1.16,0.04c-0.73-0.57-1.46-1.14-2.27-1.66c0.52,0.9,1.04,1.8,1.57,2.72c-0.25,0.14-0.44,0.25-0.64,0.37
		c-0.88-1.52-1.75-3.03-2.65-4.59c0.15-0.09,0.29-0.15,0.42-0.25c0.2-0.15,0.35-0.13,0.55,0.04c0.67,0.55,1.36,1.08,2.04,1.61
		c0.11,0.09,0.24,0.17,0.36,0.25C55.03,52.81,55.06,52.79,55.08,52.77z"/>
	<path fill="#404451" d="M86.63,37.1c-0.88-1.53-1.76-3.04-2.63-4.55c0.54-0.46,0.63-0.47,1.16-0.07c0.73,0.56,1.46,1.13,2.26,1.64
		c-0.51-0.88-1.02-1.77-1.54-2.67c0.22-0.13,0.4-0.23,0.61-0.35c0.87,1.51,1.75,3.03,2.62,4.55c-0.52,0.44-0.59,0.44-1.12,0.03
		c-0.72-0.56-1.43-1.12-2.15-1.68c-0.04,0.03-0.07,0.05-0.11,0.08c0.41,0.7,0.81,1.4,1.22,2.11C87.29,36.78,87.29,36.78,86.63,37.1z
		"/>
	<path fill="#404451" d="M91.89,31.53c-0.51-0.88-1.02-1.77-1.54-2.67c0.23-0.13,0.41-0.24,0.61-0.35c0.88,1.52,1.75,3.03,2.62,4.54
		c-0.45,0.44-0.6,0.45-1.08,0.08c-0.65-0.51-1.3-1.02-1.96-1.53c-0.07-0.06-0.16-0.1-0.31-0.1c0.5,0.86,1,1.73,1.51,2.62
		c-0.24,0.16-0.43,0.29-0.64,0.43c-0.89-1.54-1.77-3.06-2.66-4.62c0.16-0.09,0.32-0.17,0.45-0.27c0.19-0.14,0.33-0.09,0.49,0.04
		c0.72,0.57,1.45,1.12,2.17,1.68c0.08,0.06,0.17,0.12,0.26,0.18C91.84,31.56,91.86,31.54,91.89,31.53z"/>
	<path fill="#404451" d="M44.08,57.48c-0.22-0.08-0.41-0.17-0.62-0.22c-0.36-0.09-0.62,0.06-0.62,0.42
		c-0.01,0.34,0.06,0.69,0.16,1.01c0.18,0.57,0.53,1.03,1.02,1.39c0.22,0.16,0.48,0.28,0.76,0.11c0.28-0.17,0.29-0.45,0.25-0.72
		c-0.03-0.19-0.09-0.37-0.15-0.6c-0.27,0.14-0.49,0.24-0.74,0.37c-0.15-0.27-0.3-0.53-0.47-0.82c0.2-0.12,0.4-0.23,0.6-0.35
		c0.19-0.11,0.38-0.22,0.61-0.35c0.51,0.88,1,1.74,1.53,2.65c-0.21,0.08-0.43,0.17-0.71,0.28c-0.35,0.72-0.9,0.92-1.66,0.45
		c-1.32-0.82-2.02-2.05-2.11-3.59c-0.04-0.63,0.3-1.11,0.77-1.28c0.43-0.15,1.25,0.1,1.56,0.49c0.05,0.06,0.07,0.19,0.04,0.27
		C44.25,57.14,44.16,57.3,44.08,57.48z"/>
	<path fill="#404451" d="M57.66,49.63c-0.18-0.08-0.34-0.16-0.5-0.22c-0.4-0.14-0.71,0.04-0.76,0.45c-0.03,0.23-0.01,0.51,0.09,0.72
		c0.22,0.46,0.5,0.89,0.76,1.32c0.04,0.07,0.11,0.13,0.17,0.19c0.3,0.28,0.69,0.38,0.95,0.24c0.37-0.21,0.25-0.56,0.22-0.87
		c-0.04-0.36-0.18-0.41-0.5-0.26c-0.1,0.05-0.2,0.1-0.33,0.16c-0.15-0.26-0.3-0.51-0.46-0.79c0.39-0.22,0.79-0.45,1.22-0.7
		c0.47,0.81,0.93,1.62,1.4,2.42c0.13,0.22-0.06,0.29-0.19,0.36c-0.12,0.06-0.26,0.06-0.4,0.08c-0.31,0.71-0.74,0.88-1.48,0.6
		c-0.53-0.2-0.92-0.57-1.25-1.01c-0.48-0.63-0.87-1.3-0.99-2.09c-0.05-0.3-0.06-0.62-0.02-0.92c0.1-0.76,0.69-1.13,1.43-0.92
		c0.11,0.03,0.21,0.07,0.32,0.11C57.98,48.78,58.04,48.97,57.66,49.63z"/>
	<path fill="#404451" d="M59.91,46.45c0.51-0.3,0.99-0.63,1.51-0.84c0.2-0.08,0.56,0.02,0.76,0.16c0.75,0.54,1.15,1.27,1.05,2.23
		c-0.01,0.12,0.06,0.28,0.14,0.37c0.36,0.34,0.75,0.65,1.12,0.98c0.11,0.1,0.19,0.21,0.29,0.32c-0.5,0.48-0.55,0.48-1.02,0.09
		c-0.33-0.28-0.66-0.56-1.01-0.82c-0.12-0.09-0.29-0.12-0.44-0.18c-0.04,0.04-0.07,0.08-0.11,0.11c0.33,0.58,0.67,1.15,1.01,1.75
		c-0.27,0.15-0.45,0.26-0.66,0.38C61.66,49.5,60.79,47.99,59.91,46.45z M61.04,46.98c0.16,0.28,0.3,0.54,0.46,0.79
		c0.04,0.06,0.17,0.14,0.2,0.12c0.23-0.15,0.56-0.28,0.64-0.49c0.07-0.18-0.11-0.5-0.26-0.7c-0.19-0.24-0.42-0.06-0.63,0.06
		C61.34,46.81,61.24,46.87,61.04,46.98z"/>
	<path fill="#404451" d="M84.72,35.13c0.19,0.61,0.41,1.14,0.52,1.69c0.06,0.31,0.02,0.67-0.08,0.98c-0.21,0.64-0.8,0.89-1.43,0.66
		c-0.18-0.07-0.38-0.15-0.53-0.26c-1.11-0.85-1.75-1.97-1.88-3.36c-0.05-0.51,0.07-1.01,0.59-1.27c0.51-0.26,1.04-0.21,1.46,0.16
		C83.86,34.16,84.29,34.68,84.72,35.13z M83.99,35.6c0.01-0.01,0.03-0.03,0.04-0.04c-0.29-0.32-0.54-0.68-0.87-0.94
		c-0.17-0.13-0.54-0.17-0.71-0.07c-0.17,0.1-0.22,0.43-0.28,0.67c-0.03,0.11,0.01,0.26,0.07,0.36c0.28,0.51,0.56,1.01,0.87,1.5
		c0.09,0.14,0.28,0.25,0.44,0.32c0.47,0.22,0.78,0.06,0.85-0.45c0.03-0.21-0.01-0.45-0.08-0.65C84.25,36.06,84.1,35.84,83.99,35.6z"
		/>
	<path fill="#404451" d="M69.24,43.72c-0.09-0.32-0.31-0.93-0.42-1.56c-0.09-0.54,0.02-1.09,0.58-1.37
		c0.57-0.29,1.12-0.16,1.59,0.24c0.81,0.68,1.36,1.55,1.66,2.55c0.11,0.38,0.11,0.81,0.05,1.21c-0.13,0.86-0.85,1.22-1.64,0.85
		C70.32,45.29,69.82,44.68,69.24,43.72z M70.05,43.63c0.23,0.28,0.44,0.57,0.69,0.82c0.23,0.24,0.55,0.41,0.87,0.21
		c0.3-0.18,0.35-0.54,0.28-0.86c-0.16-0.75-0.53-1.41-1.13-1.91c-0.24-0.2-0.53-0.3-0.82-0.13c-0.3,0.18-0.35,0.49-0.28,0.78
		C69.76,42.91,69.92,43.27,70.05,43.63z"/>
	<path fill="#404451" d="M38.69,61.7c0.15,0.33,0.34,0.64,0.44,0.98c0.11,0.37,0.2,0.78,0.17,1.16c-0.08,1.16-1.01,1.63-1.97,0.95
		c-1.17-0.83-1.84-1.99-1.97-3.43c-0.04-0.48,0.06-0.95,0.52-1.23c0.49-0.29,0.97-0.21,1.44,0.06
		C37.95,60.55,38.33,61.11,38.69,61.7z M38.14,62.23c-0.28-0.35-0.54-0.71-0.84-1.03c-0.21-0.22-0.53-0.33-0.78-0.13
		c-0.16,0.13-0.32,0.44-0.28,0.62c0.11,0.49,0.26,0.98,0.51,1.41c0.2,0.34,0.52,0.63,0.86,0.84c0.43,0.26,0.73,0.08,0.84-0.42
		C38.56,63.03,38.33,62.64,38.14,62.23z"/>
	<path fill="#404451" d="M95.66,28.9c0.31,0.57,0.69,1.08,0.66,1.75c-0.02,0.45-0.09,0.88-0.42,1.23c-0.24,0.26-0.53,0.35-0.87,0.28
		c-0.54-0.1-0.95-0.39-1.32-0.77c-0.78-0.8-1.25-1.75-1.34-2.86c-0.04-0.51,0.02-1.01,0.52-1.3c0.5-0.3,1-0.19,1.48,0.09
		C95,27.69,95.31,28.34,95.66,28.9z M93.55,30.03c0.32,0.34,0.6,0.68,0.92,0.96c0.18,0.16,0.47,0.3,0.67,0.07
		c0.16-0.18,0.33-0.48,0.3-0.7c-0.11-0.86-0.55-1.57-1.22-2.09c-0.16-0.13-0.51-0.17-0.68-0.09c-0.17,0.08-0.34,0.4-0.32,0.59
		C93.27,29.2,93.44,29.62,93.55,30.03z"/>
	<path fill="#404451" d="M25.38,72.49c-0.15,0.09-0.26,0.14-0.36,0.21c-0.18,0.13-0.3,0.09-0.41-0.1c-0.8-1.42-1.61-2.84-2.42-4.27
		c-0.01-0.02-0.01-0.05-0.02-0.14c0.49-0.25,0.99-0.54,1.52-0.76c0.15-0.06,0.4,0.01,0.56,0.1c0.82,0.47,1.25,1.19,1.19,2.14
		c-0.02,0.31,0.06,0.5,0.3,0.69c0.35,0.26,0.67,0.54,0.99,0.84c0.1,0.1,0.21,0.32,0.17,0.4c-0.15,0.26-0.53,0.31-0.72,0.15
		c-0.35-0.29-0.7-0.59-1.06-0.88c-0.1-0.08-0.2-0.16-0.31-0.2c-0.08-0.03-0.18-0.02-0.27-0.02c0,0.09-0.04,0.2,0,0.27
		c0.21,0.42,0.44,0.83,0.66,1.25C25.24,72.25,25.3,72.35,25.38,72.49z M23.29,68.81c0.14,0.25,0.27,0.49,0.42,0.71
		c0.05,0.08,0.21,0.18,0.25,0.16c0.23-0.13,0.55-0.26,0.61-0.46c0.06-0.19-0.12-0.51-0.27-0.7c-0.2-0.25-0.44-0.09-0.65,0.06
		C23.54,68.65,23.44,68.71,23.29,68.81z"/>
	<path fill="#404451" d="M49.55,55.27c-0.34-0.51-0.67-1.17-0.56-1.98c0.14-1.06,0.95-1.54,1.86-0.96c1.32,0.85,2.05,2.1,2.05,3.69
		c0,0.96-0.82,1.43-1.71,1.04C50.5,56.75,50.25,56.49,49.55,55.27z M51.72,54.31c-0.24-0.29-0.42-0.56-0.64-0.79
		c-0.34-0.35-0.74-0.46-0.99-0.31c-0.23,0.14-0.35,0.61-0.22,1.03c0.21,0.67,0.57,1.26,1.09,1.73c0.22,0.2,0.47,0.35,0.77,0.17
		c0.31-0.18,0.41-0.48,0.34-0.8C51.98,54.98,51.83,54.62,51.72,54.31z"/>
	<path fill="#404451" d="M33.34,64.07c0.34-0.2,0.66-0.38,1.01-0.58c-0.14-0.28-0.27-0.57-0.42-0.85c-0.15-0.28-0.32-0.56-0.49-0.86
		c0.21-0.12,0.37-0.22,0.57-0.33c0.87,1.5,1.73,3,2.61,4.52c-0.17,0.1-0.34,0.2-0.56,0.32c-0.35-0.61-0.71-1.23-1.08-1.88
		c-0.38,0.22-0.72,0.42-1.11,0.64c0.36,0.62,0.72,1.24,1.08,1.88c-0.22,0.13-0.41,0.24-0.6,0.34c-0.87-1.5-1.74-3.01-2.61-4.53
		c0.2-0.11,0.35-0.2,0.54-0.31C32.63,62.97,32.97,63.5,33.34,64.07z"/>
	<path fill="#404451" d="M50.54,57.84c-0.39,0.48-0.59,0.52-0.99,0.2c-0.38-0.3-0.75-0.6-1.13-0.9c-0.11-0.09-0.24-0.15-0.36-0.23
		c-0.03,0.02-0.06,0.04-0.09,0.07c0.12,0.3,0.24,0.6,0.37,0.89c0.1,0.22,0.21,0.45,0.36,0.65c0.22,0.3,0.11,0.46-0.17,0.6
		c-0.05,0.03-0.11,0.06-0.19,0.11c-0.88-1.53-1.76-3.04-2.64-4.57c0.18-0.1,0.35-0.2,0.55-0.32c0.28,0.41,0.54,0.8,0.81,1.19
		c0.03-0.01,0.06-0.02,0.08-0.03c-0.01-0.39,0.02-0.79-0.03-1.17c-0.06-0.45,0.11-0.7,0.53-0.83c0.07-0.02,0.13-0.06,0.26-0.12
		c0.02,0.14,0.04,0.26,0.05,0.37c0.01,0.2,0.02,0.4,0.03,0.59c0.05,1.46,0.05,1.45,1.18,2.35C49.6,57.08,50.06,57.46,50.54,57.84z"
		/>
	<path fill="#404451" d="M31.14,66.7c-0.39,0.23-0.73,0.42-1.08,0.63c0.16,0.27,0.28,0.52,0.45,0.75c0.05,0.06,0.24,0.08,0.33,0.04
		c0.36-0.18,0.71-0.4,1.09-0.62c0.18,0.31,0.34,0.59,0.51,0.89c-0.63,0.37-1.28,0.74-1.95,1.12c-0.87-1.51-1.74-3.01-2.63-4.55
		c0.63-0.36,1.25-0.72,1.88-1.09c0.17,0.29,0.33,0.58,0.51,0.89c-0.42,0.27-0.82,0.53-1.21,0.78c0.01,0.05,0.01,0.08,0.02,0.1
		c0.4,0.77,0.41,0.78,1.16,0.35c0.28-0.16,0.45-0.14,0.59,0.15C30.9,66.32,31.01,66.48,31.14,66.7z"/>
	<path fill="#404451" d="M62.93,44.69c0.63-0.36,1.25-0.72,1.88-1.09c0.17,0.29,0.33,0.58,0.52,0.9c-0.42,0.27-0.82,0.52-1.22,0.78
		c0.16,0.28,0.32,0.55,0.5,0.87c0.28-0.16,0.53-0.3,0.78-0.45c0.21-0.13,0.34-0.1,0.44,0.12c0.1,0.2,0.2,0.39,0.32,0.63
		c-0.36,0.21-0.69,0.4-0.99,0.57c0,0.08-0.01,0.1,0,0.12c0.47,0.89,0.47,0.89,1.35,0.39c0.16-0.09,0.32-0.18,0.49-0.29
		c0.18,0.32,0.34,0.59,0.51,0.88c-0.65,0.37-1.29,0.74-1.95,1.13C64.7,47.74,63.82,46.23,62.93,44.69z"/>
	<path fill="#404451" d="M73.84,38.42c0.18-0.1,0.34-0.2,0.58-0.33c0.34,0.58,0.66,1.15,0.99,1.71c0.24,0.4,0.49,0.8,0.74,1.2
		c0.08,0.12,0.17,0.24,0.29,0.34c0.21,0.17,0.49,0.26,0.67,0.06c0.14-0.15,0.25-0.47,0.19-0.65c-0.14-0.42-0.38-0.8-0.6-1.19
		c-0.33-0.61-0.66-1.22-1-1.83c-0.13-0.23-0.1-0.39,0.13-0.52c0.23-0.13,0.4-0.09,0.52,0.14c0.55,1.01,1.12,2.01,1.65,3.03
		c0.23,0.45,0.23,0.96,0.11,1.45c-0.15,0.58-0.61,0.85-1.19,0.69c-0.49-0.13-0.93-0.4-1.19-0.84
		C75.09,40.63,74.48,39.53,73.84,38.42z"/>
	<path fill="#404451" d="M27.5,66.35c-0.44,0.28-0.83,0.53-1.26,0.8c0.19,0.28,0.36,0.53,0.55,0.82c0.34-0.2,0.66-0.38,1-0.58
		c0.18,0.3,0.33,0.58,0.51,0.89c-0.33,0.21-0.66,0.42-1.03,0.66c0.2,0.3,0.38,0.59,0.59,0.91c0.44-0.25,0.85-0.49,1.3-0.75
		c0.18,0.31,0.34,0.58,0.51,0.88c-0.63,0.36-1.26,0.73-1.94,1.12c-0.06-0.09-0.14-0.18-0.2-0.28c-0.76-1.32-1.52-2.64-2.29-3.96
		c-0.14-0.24-0.14-0.38,0.13-0.52c0.53-0.28,1.05-0.6,1.59-0.91C27.15,65.75,27.32,66.03,27.5,66.35z"/>
	<path fill="#404451" d="M67.77,41.93c0.43,1.19,0.85,2.35,1.27,3.51c0.15,0.41,0.27,0.82,0.43,1.23c0.09,0.22,0.03,0.35-0.17,0.45
		c-0.13,0.07-0.25,0.17-0.39,0.21c-0.09,0.03-0.26,0.01-0.31-0.06c-1.02-1.2-2.03-2.41-3.04-3.61c-0.09-0.1-0.15-0.22-0.22-0.33
		c0.42-0.4,0.54-0.4,0.9,0.02c0.55,0.65,1.1,1.31,1.65,1.96c0.11,0.13,0.23,0.25,0.34,0.37c0.03-0.02,0.06-0.03,0.09-0.05
		c-0.18-0.51-0.36-1.03-0.54-1.54c-0.16-0.44-0.33-0.88-0.49-1.33C67.08,42.2,67.1,42.17,67.77,41.93z"/>
	<path fill="#404451" d="M19.66,69.67c0.63-0.36,1.25-0.72,1.88-1.09c0.17,0.3,0.34,0.58,0.52,0.9c-0.42,0.27-0.82,0.53-1.22,0.78
		c0.53,1.05,0.37,0.84,1.23,0.44c0.14-0.07,0.4-0.15,0.45-0.09c0.17,0.21,0.27,0.46,0.38,0.71c0.01,0.03-0.11,0.14-0.19,0.19
		c-0.27,0.17-0.55,0.32-0.86,0.5c0.37,0.64,0.71,1.23,1.07,1.85c-0.22,0.13-0.4,0.23-0.62,0.36C21.43,72.72,20.55,71.21,19.66,69.67
		z"/>
	<path fill="#404451" d="M78.89,35.49c0.16,0.31,0.3,0.6,0.46,0.91c-0.25,0.17-0.48,0.33-0.73,0.51c0.69,1.2,1.38,2.39,2.08,3.6
		c-0.22,0.13-0.41,0.24-0.64,0.37c-0.69-1.2-1.38-2.38-2.05-3.56c-0.31,0.1-0.63,0.32-0.84,0.24c-0.24-0.1-0.38-0.46-0.58-0.74
		C77.37,36.37,78.11,35.94,78.89,35.49z"/>
	<path fill="#404451" d="M71.47,39.75c0.19-0.11,0.37-0.21,0.61-0.35c0.69,1.2,1.38,2.39,2.07,3.59c0.44-0.22,0.82-0.41,1.23-0.61
		c0.18,0.32,0.35,0.6,0.52,0.91c-0.53,0.31-1.06,0.62-1.6,0.92c-0.07,0.04-0.26-0.02-0.29-0.08C73.16,42.69,72.33,41.24,71.47,39.75
		z"/>
	<path fill="#404451" d="M82.01,39.77c-0.88-1.53-1.75-3.03-2.62-4.54c0.43-0.43,0.6-0.44,0.89,0.06c0.76,1.28,1.49,2.58,2.23,3.86
		c0.1,0.17,0.08,0.3-0.1,0.39C82.28,39.61,82.16,39.69,82.01,39.77z"/>
	<path fill="#404451" d="M60.58,49.31c0.1,0.25,0.05,0.48-0.18,0.64c-0.18,0.13-0.61,0.01-0.68-0.19c-0.09-0.26-0.04-0.51,0.22-0.64
		C60.18,49,60.42,49.05,60.58,49.31z"/>
</g>
</svg>
